Coordinates
nRows=5
nColumns=24

# SIMM Motion File Header:
name Coordinates
datacolumns 24
datarows 5
otherdata 1
range 0.60799999999999998000 0.61199999999999999000

Units are S.I. units (second, meters, Newtons, ...)
Angles are in degrees.

endheader
time	pelvis_tx	pelvis_ty	pelvis_tz	pelvis_tilt	pelvis_list	pelvis_rotation	hip_flexion_r	hip_adduction_r	hip_rotation_r	knee_angle_r	ankle_angle_r	subtalar_angle_r	mtp_angle_r	hip_flexion_l	hip_adduction_l	hip_rotation_l	knee_angle_l	ankle_angle_l	subtalar_angle_l	mtp_angle_l	lumbar_extension	lumbar_bending	lumbar_rotation
      0.60799999999999998000	      1.63514217623337130000	      0.89458191413396249000	     -0.28511998392498694000	      3.53887544647843470000	     -1.20769738984457510000	     -0.37641202624495845000	     19.46200798034614700000	     -3.28845588332391210000	     -3.41481472032554030000	    -30.38329391735107500000	      7.75645672288855970000	     -0.00000000000000023256	     -0.00000000000000036815	     -5.68400960152099000000	      2.16777253673960810000	      3.08026375508505530000	    -13.05799657651960800000	     13.62460157755795500000	     -0.00000000000003928121	      0.00000000000003608556	    -13.11828209982212800000	      2.42861045388654250000	      0.40073000740662335000
      0.60899999999999999000	      1.63566885776950350000	      0.89452981430027156000	     -0.28513042827584467000	      3.53811054467454420000	     -1.21109982327461770000	     -0.34406748463173414000	     19.46696248529156700000	     -3.27249571331771390000	     -3.38810136641123490000	    -30.19557151960842800000	      7.72253241169747100000	     -0.00000000000000023828	     -0.00000000000000037620	     -5.72781064156001560000	      2.15817585971393510000	      3.09204257177380090000	    -13.04456273598818900000	     13.64560901761997000000	     -0.00000000000003945159	      0.00000000000003613014	    -13.11756100555820100000	      2.43770226948216880000	      0.36864289867747435000
      0.60999999999999999000	      1.63619588911254100000	      0.89447724817207874000	     -0.28514061867951368000	      3.53736148825989980000	     -1.21438818544249760000	     -0.31165152211375757000	     19.47148292979014500000	     -3.25672503267873070000	     -3.36197821392752650000	    -30.00775593862369600000	      7.68830782815876290000	     -0.00000000000000024409	     -0.00000000000000038380	     -5.77145535551296080000	      2.14862622027093540000	      3.10369696498942990000	    -13.03145929105282600000	     13.66665370886577300000	     -0.00000000000003962856	      0.00000000000003616001	    -13.11686657133496900000	      2.44666824148836030000	      0.33652239916055332000
      0.61099999999999999000	      1.63672326753788600000	      0.89442421931669225000	     -0.28515053939861984000	      3.53662989050636070000	     -1.21756433960667350000	     -0.27916636516164911000	     19.47557406748995100000	     -3.24113870044228620000	     -3.33645784823089200000	    -29.81986578973438300000	      7.65379642669629500000	     -0.00000000000000025019	     -0.00000000000000039179	     -5.81494334051969200000	      2.13912133667977190000	      3.11522323535310840000	    -13.01869039321136200000	     13.68773366946793300000	     -0.00000000000003979290	      0.00000000000003611991	    -13.11620198464673200000	      2.45550548669933510000	      0.30437595756102531000
      0.61199999999999999000	      1.63725099051653640000	      0.89437073144989088000	     -0.28516017484594902000	      3.53591744427893230000	     -1.22063011533184110000	     -0.24661424987234917000	     19.47924049734335100000	     -3.22573152065230940000	     -3.31155180893466380000	    -29.63191960743705200000	      7.61901204887552110000	     -0.00000000000000025667	     -0.00000000000000039959	     -5.85827436377157880000	      2.12965896275972310000	      3.12661780096185860000	    -13.00626006014407900000	     13.70884680785486000000	     -0.00000000000003995147	      0.00000000000003604816	    -13.11557049812364400000	      2.46421113218498930000	      0.27221099198242960000
